<svg width="34" height="32" viewBox="0 0 34 32" fill="none" xmlns="http://www.w3.org/2000/svg">
<path d="M17.1798 31.9395C26.1372 31.9395 33.3987 24.9285 33.3987 16.2799C33.3987 7.63134 26.1372 0.6203 17.1798 0.6203C8.22237 0.6203 0.960938 7.63134 0.960938 16.2799C0.960938 24.9285 8.22237 31.9395 17.1798 31.9395Z" fill="#B52424"/>
<g clip-path="url(#clip0_643_319)">
<path d="M10.6603 24.1097C10.4688 24.1097 10.2772 24.0313 10.1317 23.8734C9.83956 23.5588 9.83956 23.0487 10.1317 22.7341L23.1763 8.68607C23.4684 8.37145 23.9421 8.37145 24.2342 8.68607C24.5264 9.0007 24.5264 9.51078 24.2342 9.8256L11.1898 23.8734C11.0432 24.0303 10.8517 24.1097 10.6603 24.1097Z" fill="white"/>
<path d="M23.7058 24.1097C23.5142 24.1097 23.3229 24.0313 23.1772 23.8734L10.1317 9.8256C9.83956 9.51078 9.83956 9.0007 10.1317 8.68607C10.4239 8.37145 10.8975 8.37145 11.1898 8.68607L24.2342 22.7341C24.5264 23.0487 24.5264 23.5588 24.2342 23.8734C24.0876 24.0303 23.8962 24.1097 23.7058 24.1097Z" fill="white"/>
</g>
<defs>
<clipPath id="clip0_643_319">
<rect width="14.5411" height="15.6596" fill="white" transform="translate(9.90918 8.4501)"/>
</clipPath>
</defs>
</svg>
