<svg width="26" height="26" viewBox="0 0 26 26" fill="none" xmlns="http://www.w3.org/2000/svg">
<g clip-path="url(#clip0_372_165)">
<path d="M13 0C5.83177 0 0 5.83177 0 13C0 20.1682 5.83177 26 13 26C20.1682 26 26 20.1682 26 13C26 5.83177 20.1682 0 13 0ZM13 24.7812C6.50381 24.7812 1.21875 19.4962 1.21875 13C1.21875 6.50381 6.50381 1.21875 13 1.21875C19.4962 1.21875 24.7812 6.50381 24.7812 13C24.7812 19.4962 19.4962 24.7812 13 24.7812ZM19.1096 7.64258H6.89036C6.07308 7.64258 5.40815 8.30751 5.40815 9.12478V16.8753C5.40815 17.6925 6.07303 18.3575 6.89036 18.3575H19.1096C19.9269 18.3575 20.5918 17.6925 20.5918 16.8753V9.12478C20.5918 8.30751 19.9269 7.64258 19.1096 7.64258ZM18.191 8.86133L13 12.9836L7.80894 8.86133H18.191ZM19.1096 17.1387H6.89036C6.74512 17.1387 6.6269 17.0205 6.6269 16.8752V9.47893L12.621 14.2389C12.732 14.327 12.866 14.3711 12.9999 14.3711C13.1339 14.3711 13.268 14.3271 13.3789 14.2389L19.373 9.47893V16.8752C19.373 17.0205 19.2548 17.1387 19.1096 17.1387Z" fill="black"/>
</g>
<defs>
<clipPath id="clip0_372_165">
<rect width="26" height="26" fill="white"/>
</clipPath>
</defs>
</svg>
