<svg width="28" height="28" viewBox="0 0 28 28" fill="none" xmlns="http://www.w3.org/2000/svg">
<path d="M20.9998 9.22835C20.9648 9.22835 20.9415 9.22835 20.9065 9.22835H20.8482C18.6432 9.15835 16.9982 7.455 16.9982 5.355C16.9982 3.20834 18.7482 1.47 20.8832 1.47C23.0182 1.47 24.7682 3.22 24.7682 5.355C24.7565 7.46667 23.1115 9.17001 21.0115 9.24001C21.0115 9.22834 21.0115 9.22835 20.9998 9.22835ZM20.8832 3.20834C19.7048 3.20834 18.7482 4.16501 18.7482 5.34334C18.7482 6.49834 19.6465 7.43168 20.8015 7.47835C20.8132 7.46668 20.9065 7.46668 21.0115 7.47835C22.1432 7.42001 23.0182 6.48668 23.0298 5.34334C23.0298 4.16501 22.0732 3.20834 20.8832 3.20834Z" fill="#08613E"/>
<path d="M21.0116 17.8267C20.5566 17.8267 20.1016 17.7917 19.6466 17.71C19.1683 17.6284 18.8533 17.1734 18.935 16.695C19.0166 16.2167 19.4716 15.9017 19.95 15.9834C21.385 16.2284 22.9016 15.9601 23.9166 15.2834C24.465 14.9217 24.7566 14.4667 24.7566 14.0117C24.7566 13.5567 24.4533 13.1134 23.9166 12.7517C22.9016 12.075 21.3616 11.8067 19.915 12.0634C19.4366 12.1567 18.9816 11.83 18.9 11.3517C18.8183 10.8734 19.1333 10.4184 19.6116 10.3367C21.5133 9.99838 23.485 10.36 24.885 11.2934C25.9116 11.9817 26.5066 12.9617 26.5066 14.0117C26.5066 15.05 25.9233 16.0417 24.885 16.7417C23.8233 17.4417 22.4466 17.8267 21.0116 17.8267Z" fill="#08613E"/>
<path d="M6.96494 9.22835C6.95327 9.22835 6.9416 9.22835 6.9416 9.22835C4.8416 9.15835 3.1966 7.45501 3.18494 5.35501C3.18494 3.20834 4.93494 1.45834 7.06994 1.45834C9.20494 1.45834 10.9549 3.20835 10.9549 5.34335C10.9549 7.45501 9.30994 9.15835 7.20994 9.22835L6.96494 8.35335L7.0466 9.22835C7.02327 9.22835 6.98827 9.22835 6.96494 9.22835ZM7.0816 7.47835C7.1516 7.47835 7.20994 7.47834 7.27994 7.49001C8.31827 7.44334 9.22827 6.51001 9.22827 5.35501C9.22827 4.17667 8.27161 3.22 7.09327 3.22C5.91494 3.22 4.95827 4.17667 4.95827 5.35501C4.95827 6.49834 5.84494 7.42001 6.9766 7.49001C6.98827 7.47834 7.03494 7.47835 7.0816 7.47835Z" fill="#08613E"/>
<path d="M6.95337 17.8267C5.51837 17.8267 4.14171 17.4417 3.08004 16.7417C2.05337 16.0534 1.45837 15.0617 1.45837 14.0117C1.45837 12.9734 2.05337 11.9817 3.08004 11.2934C4.48004 10.36 6.45171 9.99838 8.35337 10.3367C8.83171 10.4184 9.14671 10.8734 9.06504 11.3517C8.98337 11.83 8.52838 12.1567 8.05004 12.0634C6.60338 11.8067 5.07504 12.075 4.04838 12.7517C3.50004 13.1134 3.20837 13.5567 3.20837 14.0117C3.20837 14.4667 3.51171 14.9217 4.04838 15.2834C5.06338 15.9601 6.58004 16.2284 8.01504 15.9834C8.49337 15.9017 8.94838 16.2284 9.03004 16.695C9.11171 17.1734 8.79671 17.6284 8.31838 17.71C7.86338 17.7917 7.40837 17.8267 6.95337 17.8267Z" fill="#08613E"/>
<path d="M13.9998 17.9433C13.9648 17.9433 13.9415 17.9433 13.9065 17.9433H13.8482C11.6432 17.8733 9.99817 16.17 9.99817 14.07C9.99817 11.9233 11.7482 10.185 13.8832 10.185C16.0182 10.185 17.7682 11.935 17.7682 14.07C17.7565 16.1816 16.1115 17.885 14.0115 17.955C14.0115 17.9433 14.0115 17.9433 13.9998 17.9433ZM13.8832 11.9233C12.7048 11.9233 11.7482 12.88 11.7482 14.0583C11.7482 15.2133 12.6465 16.1466 13.8015 16.1933C13.8132 16.1816 13.9065 16.1816 14.0115 16.1933C15.1432 16.135 16.0182 15.2016 16.0298 14.0583C16.0298 12.8916 15.0732 11.9233 13.8832 11.9233Z" fill="#08613E"/>
<path d="M13.9997 26.5533C12.5997 26.5533 11.1997 26.1917 10.1147 25.4567C9.08804 24.7683 8.49304 23.7883 8.49304 22.7383C8.49304 21.7 9.07637 20.6966 10.1147 20.0083C12.2964 18.5616 15.7147 18.5616 17.8847 20.0083C18.9114 20.6966 19.5064 21.6766 19.5064 22.7266C19.5064 23.765 18.923 24.7683 17.8847 25.4567C16.7997 26.18 15.3997 26.5533 13.9997 26.5533ZM11.083 21.4783C10.5347 21.84 10.243 22.295 10.243 22.75C10.243 23.205 10.5464 23.6483 11.083 24.01C12.658 25.0717 15.3297 25.0717 16.9047 24.01C17.453 23.6483 17.7447 23.1933 17.7447 22.7383C17.7447 22.2833 17.4414 21.84 16.9047 21.4783C15.3414 20.4167 12.6697 20.4283 11.083 21.4783Z" fill="#08613E"/>
</svg>
