<svg width="193" height="179" viewBox="0 0 193 179" fill="none" xmlns="http://www.w3.org/2000/svg">
<mask id="mask0_583_2" style="mask-type:alpha" maskUnits="userSpaceOnUse" x="0" y="114" width="193" height="42">
<rect y="114" width="193" height="42" fill="#D9D9D9"/>
</mask>
<g mask="url(#mask0_583_2)">
<path d="M30.1897 152C26.7413 152 23.7283 151.221 21.1507 149.664C18.5732 148.107 16.5703 145.926 15.1422 143.123C13.7141 140.32 13 137.049 13 133.311C13 129.608 13.7315 126.338 15.1944 123.5C16.6574 120.662 18.7299 118.447 21.412 116.855C24.1289 115.229 27.3335 114.415 31.0257 114.415C35.2055 114.415 38.6888 115.419 41.4753 117.426C44.2619 119.434 46.0732 122.202 46.9092 125.732H40.6394C40.0821 123.794 38.9848 122.271 37.3477 121.164C35.7106 120.056 33.6033 119.503 31.0257 119.503C27.1941 119.503 24.1811 120.731 21.9867 123.189C19.7923 125.646 18.6951 129.037 18.6951 133.363C18.6951 137.689 19.7749 141.064 21.9345 143.486C24.0941 145.909 26.9677 147.12 30.5554 147.12C34.178 147.12 36.8949 146.099 38.7062 144.057C40.5523 142.015 41.6321 139.299 41.9456 135.907H32.0184V131.65H47.5362V151.377H42.4681L41.9978 146.03C40.7787 147.934 39.2461 149.404 37.4 150.443C35.5539 151.481 33.1504 152 30.1897 152Z" fill="#009245"/>
<path d="M62.2518 152C59.7091 152 57.445 151.446 55.4595 150.339C53.5089 149.197 51.9763 147.622 50.8617 145.615C49.7471 143.607 49.1897 141.271 49.1897 138.607C49.1897 135.907 49.7296 133.536 50.8094 131.495C51.9241 129.453 53.4567 127.861 55.4073 126.719C57.3927 125.577 59.6917 125.005 62.3041 125.005C64.8468 125.005 67.0587 125.577 68.9396 126.719C70.8205 127.826 72.2835 129.314 73.3285 131.183C74.3734 133.052 74.8959 135.111 74.8959 137.361C74.8959 137.707 74.8785 138.087 74.8437 138.503C74.8437 138.883 74.8263 139.316 74.7914 139.801H54.6236C54.7977 142.292 55.6163 144.196 57.0792 145.511C58.577 146.791 60.3012 147.432 62.2518 147.432C63.8193 147.432 65.1255 147.086 66.1704 146.393C67.2502 145.667 68.0514 144.698 68.5739 143.486H74.1122C73.4156 145.909 72.0223 147.934 69.9323 149.56C67.8772 151.187 65.3171 152 62.2518 152ZM62.2518 129.522C60.4057 129.522 58.7686 130.076 57.3405 131.183C55.9124 132.256 55.0416 133.883 54.7281 136.063H69.3576C69.2531 134.056 68.539 132.464 67.2154 131.287C65.8918 130.11 64.2373 129.522 62.2518 129.522Z" fill="#009245"/>
<path d="M76.7238 151.377V125.628H81.6351L82.0531 130.145C82.8543 128.553 84.0212 127.307 85.5538 126.407C87.1212 125.473 88.9151 125.005 90.9353 125.005C94.0702 125.005 96.5259 125.974 98.3024 127.913C100.114 129.851 101.019 132.74 101.019 136.582V151.377H95.5332V137.153C95.5332 132.169 93.4781 129.678 89.3679 129.678C87.3128 129.678 85.606 130.404 84.2476 131.858C82.9239 133.311 82.2621 135.388 82.2621 138.087V151.377H76.7238Z" fill="#009245"/>
<path d="M115.745 152C113.202 152 110.938 151.446 108.953 150.339C107.002 149.197 105.47 147.622 104.355 145.615C103.24 143.607 102.683 141.271 102.683 138.607C102.683 135.907 103.223 133.536 104.303 131.495C105.417 129.453 106.95 127.861 108.901 126.719C110.886 125.577 113.185 125.005 115.797 125.005C118.34 125.005 120.552 125.577 122.433 126.719C124.314 127.826 125.777 129.314 126.822 131.183C127.867 133.052 128.389 135.111 128.389 137.361C128.389 137.707 128.372 138.087 128.337 138.503C128.337 138.883 128.32 139.316 128.285 139.801H108.117C108.291 142.292 109.11 144.196 110.573 145.511C112.07 146.791 113.795 147.432 115.745 147.432C117.313 147.432 118.619 147.086 119.664 146.393C120.744 145.667 121.545 144.698 122.067 143.486H127.606C126.909 145.909 125.516 147.934 123.426 149.56C121.371 151.187 118.81 152 115.745 152ZM115.745 129.522C113.899 129.522 112.262 130.076 110.834 131.183C109.406 132.256 108.535 133.883 108.221 136.063H122.851C122.746 134.056 122.032 132.464 120.709 131.287C119.385 130.11 117.731 129.522 115.745 129.522Z" fill="#009245"/>
<path d="M130.217 151.377V125.628H135.181L135.651 130.508C136.557 128.812 137.811 127.48 139.413 126.511C141.05 125.507 143.018 125.005 145.317 125.005V130.768H143.802C142.269 130.768 140.893 131.027 139.674 131.546C138.49 132.031 137.532 132.879 136.8 134.09C136.104 135.267 135.755 136.911 135.755 139.022V151.377H130.217Z" fill="#009245"/>
<path d="M149.282 120.749C148.237 120.749 147.366 120.437 146.669 119.814C146.007 119.157 145.677 118.343 145.677 117.374C145.677 116.405 146.007 115.609 146.669 114.986C147.366 114.329 148.237 114 149.282 114C150.327 114 151.18 114.329 151.842 114.986C152.538 115.609 152.887 116.405 152.887 117.374C152.887 118.343 152.538 119.157 151.842 119.814C151.18 120.437 150.327 120.749 149.282 120.749ZM146.512 151.377V125.628H152.051V151.377H146.512Z" fill="#009245"/>
<path d="M167.722 152C165.179 152 162.897 151.429 160.877 150.287C158.892 149.145 157.324 147.57 156.175 145.563C155.06 143.521 154.503 141.168 154.503 138.503C154.503 135.838 155.06 133.502 156.175 131.495C157.324 129.453 158.892 127.861 160.877 126.719C162.897 125.577 165.179 125.005 167.722 125.005C170.926 125.005 173.608 125.836 175.768 127.497C177.962 129.158 179.373 131.408 180 134.246H174.2C173.852 132.827 173.086 131.719 171.902 130.923C170.717 130.128 169.324 129.73 167.722 129.73C166.363 129.73 165.109 130.076 163.96 130.768C162.81 131.425 161.887 132.412 161.191 133.727C160.494 135.007 160.146 136.599 160.146 138.503C160.146 140.406 160.494 142.015 161.191 143.331C161.887 144.611 162.81 145.597 163.96 146.29C165.109 146.982 166.363 147.328 167.722 147.328C169.324 147.328 170.717 146.93 171.902 146.134C173.086 145.338 173.852 144.213 174.2 142.76H180C179.408 145.528 178.015 147.76 175.82 149.456C173.626 151.152 170.926 152 167.722 152Z" fill="#009245"/>
</g>
<path d="M105.507 0H85.588C71.4856 0 59.0245 7.02212 51.5013 17.755H107.032V40.4625H129.347V7.50866C122.594 2.78126 114.381 0 105.507 0ZM139.594 85.3547C132.078 96.0876 119.609 103.102 105.507 103.102H85.588C76.7214 103.102 68.5011 100.328 61.7476 95.6011V62.6472H84.063V85.3547H139.594Z" fill="#009245"/>
<path d="M129.347 7.50835V62.6469H107.032V85.3544H139.594C144.328 78.601 147.102 70.3807 147.102 61.5141V41.5951C147.102 27.4927 140.08 15.0315 129.347 7.50835ZM84.0631 17.7547V40.4622H61.7477V95.6008C51.0149 88.0776 44 75.6164 44 61.5141V41.5951C44 32.7285 46.774 24.5081 51.5014 17.7547H84.0631Z" fill="#08613E"/>
<path d="M129.347 40.4625V62.6472H107.032V85.3547H84.0631V62.6472H61.7477V40.4625H84.0631V17.755H107.032V40.4625H129.347Z" fill="white"/>
<path d="M44.7335 174L39.5712 160.13H36.2986L31.1364 174H33.8636L34.9155 171.117H40.9543L42.0063 174H44.7335ZM40.292 169.072H35.5583L37.9349 162.546L40.292 169.072ZM58.3484 167.065C58.3484 162.721 56.0303 160.13 51.4524 160.13H45.9396V174H51.4524C56.0303 174 58.3484 171.429 58.3484 167.065ZM55.6991 167.065C55.6991 170.279 54.3355 171.916 51.5888 171.916H48.5889V162.215H51.5888C54.3355 162.215 55.6991 163.851 55.6991 167.065ZM75.2717 174V160.13H71.103L67.5966 170.007L64.0902 160.13H59.9409V174H62.4538V162.526L66.4862 174H68.7264L72.7393 162.526V174H75.2717ZM80.0728 174V160.13H77.4235V174H80.0728ZM94.0808 174V160.13H91.5484V170.24L85.0616 160.13H82.2175V174H84.7304V163.89L91.2368 174H94.0808ZM112.134 164.552C112.134 161.708 110.225 160.13 107.147 160.13H101.089V174H103.738V168.974H107.147C110.225 168.974 112.134 167.416 112.134 164.552ZM109.485 164.552C109.485 166.227 108.53 166.987 106.777 166.987H103.738V162.117H106.777C108.53 162.117 109.485 162.896 109.485 164.552ZM124.708 174L119.546 160.13H116.274L111.111 174H113.839L114.89 171.117H120.929L121.981 174H124.708ZM120.267 169.072H115.533L117.91 162.546L120.267 169.072ZM137.778 174V160.13H135.246V170.24L128.759 160.13H125.915V174H128.427V163.89L134.934 174H137.778ZM150.026 174V171.838H142.565V167.942H149.403V165.916H142.565V162.292H150.026V160.13H139.916V174H150.026ZM160.945 174V171.838H154.303V160.13H151.653V174H160.945Z" fill="#003865"/>
</svg>
