<svg width="5" height="5" viewBox="0 0 7 14" fill="none" xmlns="http://www.w3.org/2000/svg">
<path d="M0.883332 8.94336L5.09083 13.1509C5.26258 13.3216 5.49491 13.4174 5.73708 13.4174C5.97925 13.4174 6.21158 13.3216 6.38333 13.1509C6.46925 13.0656 6.53744 12.9643 6.58398 12.8526C6.63052 12.7409 6.65448 12.621 6.65448 12.5C6.65448 12.379 6.63052 12.2592 6.58398 12.1475C6.53744 12.0358 6.46925 11.9344 6.38333 11.8492L2.16667 7.65086C2.08075 7.56564 2.01255 7.46426 1.96601 7.35255C1.91948 7.24085 1.89552 7.12104 1.89552 7.00003C1.89552 6.87901 1.91948 6.7592 1.96601 6.6475C2.01255 6.53579 2.08075 6.43441 2.16667 6.34919L6.38333 2.15086C6.55594 1.97946 6.6534 1.74652 6.65426 1.50327C6.65512 1.26002 6.55931 1.02639 6.38792 0.853775C6.21652 0.681164 5.98357 0.583708 5.74032 0.582848C5.49707 0.581988 5.26344 0.677796 5.09083 0.849192L0.883332 5.05669C0.368347 5.57232 0.0790841 6.27127 0.079084 7.00003C0.0790839 7.72878 0.368347 8.42773 0.883332 8.94336Z" fill="#9A9A9A"/>
</svg>
