<svg width="179" height="50" viewBox="0 0 179 50" fill="none" xmlns="http://www.w3.org/2000/svg">
<path d="M28.771 0.886017H19.4535C12.8569 0.886017 7.02795 4.17074 3.50885 9.19123H29.4843V19.8131H39.9227V4.39832C36.7637 2.187 32.9219 0.886017 28.771 0.886017ZM44.7156 40.8122C41.1999 45.8327 35.3676 49.114 28.771 49.114H19.4535C15.306 49.114 11.4608 47.8164 8.30176 45.6051V30.1903H18.7402V40.8122H44.7156Z" fill="#009245"/>
<path d="M39.9228 4.39819V30.1902H29.4844V40.8121H44.7157C46.9304 37.653 48.228 33.8078 48.228 29.6603V20.3428C48.228 13.7462 44.9433 7.91729 39.9228 4.39819ZM18.7402 9.1911V19.8129H8.30182V45.605C3.28132 42.0859 0 36.2569 0 29.6603V20.3428C0 16.1953 1.29758 12.3501 3.50891 9.1911H18.7402Z" fill="#08613E"/>
<path d="M39.9227 19.8131V30.1903H29.4843V40.8122H18.7402V30.1903H8.30179V19.8131H18.7402V9.19122H29.4843V19.8131H39.9227Z" fill="white"/>
<mask id="mask0_583_3" style="mask-type:alpha" maskUnits="userSpaceOnUse" x="54" y="5" width="125" height="28">
<path d="M54.7202 5.52332H179V32.4197H54.7202V5.52332Z" fill="#D9D9D9"/>
</mask>
<g mask="url(#mask0_583_3)">
<path d="M74.1414 29.6373C71.9198 29.6373 69.9788 29.1432 68.3183 28.1549C66.6577 27.1666 65.3674 25.783 64.4474 24.0041C63.5274 22.2252 63.0674 20.1498 63.0674 17.778C63.0674 15.4281 63.5386 13.3527 64.4811 11.5518C65.4235 9.75095 66.7587 8.3454 68.4866 7.33516C70.2369 6.30296 72.3013 5.78686 74.6799 5.78686C77.3727 5.78686 79.6167 6.42375 81.4119 7.69753C83.2071 8.97131 84.3739 10.7282 84.9125 12.9683H80.8733C80.5143 11.7385 79.8074 10.7722 78.7528 10.0694C77.6981 9.36662 76.3405 9.01523 74.6799 9.01523C72.2116 9.01523 70.2705 9.79487 68.8568 11.3542C67.4431 12.9134 66.7363 15.0657 66.7363 17.8109C66.7363 20.5561 67.4319 22.6974 68.8232 24.2347C70.2144 25.772 72.0657 26.5407 74.377 26.5407C76.7107 26.5407 78.461 25.8928 79.6279 24.5971C80.8172 23.3013 81.5128 21.5773 81.7148 19.4251H75.3195V16.7238H85.3164V29.242H82.0514L81.7485 25.8489C80.9631 27.0568 79.9757 27.9902 78.7864 28.649C77.5971 29.3079 76.0488 29.6373 74.1414 29.6373Z" fill="#009245"/>
<path d="M94.7966 29.6373C93.1585 29.6373 91.6999 29.2859 90.4208 28.5831C89.1642 27.8584 88.1768 26.8591 87.4588 25.5854C86.7407 24.3116 86.3817 22.8292 86.3817 21.1381C86.3817 19.4251 86.7295 17.9207 87.4251 16.625C88.1432 15.3292 89.1305 14.319 90.3872 13.5943C91.6662 12.8695 93.1473 12.5071 94.8302 12.5071C96.4683 12.5071 97.8933 12.8695 99.105 13.5943C100.317 14.297 101.259 15.2414 101.932 16.4273C102.606 17.6133 102.942 18.92 102.942 20.3475C102.942 20.5671 102.931 20.8087 102.909 21.0722C102.909 21.3138 102.897 21.5883 102.875 21.8958H89.8823C89.9945 23.477 90.5218 24.6849 91.4643 25.5195C92.4292 26.3321 93.54 26.7384 94.7966 26.7384C95.8064 26.7384 96.6479 26.5187 97.3211 26.0795C98.0167 25.6183 98.5328 25.0034 98.8694 24.2347H102.437C101.989 25.772 101.091 27.0568 99.7446 28.089C98.4206 29.1212 96.7713 29.6373 94.7966 29.6373ZM94.7966 15.3732C93.6073 15.3732 92.5526 15.7245 91.6326 16.4273C90.7125 17.1081 90.1516 18.1403 89.9496 19.5239H99.3743C99.307 18.2501 98.847 17.2399 97.9943 16.4932C97.1415 15.7465 96.0756 15.3732 94.7966 15.3732Z" fill="#009245"/>
<path d="M104.12 29.242V12.9025H107.284L107.553 15.7685C108.069 14.7582 108.821 13.9676 109.808 13.3966C110.818 12.8036 111.974 12.5071 113.275 12.5071C115.295 12.5071 116.877 13.1221 118.021 14.3519C119.188 15.5818 119.772 17.4156 119.772 19.8533V29.242H116.237V20.2157C116.237 17.0532 114.913 15.472 112.265 15.472C110.941 15.472 109.842 15.9332 108.967 16.8556C108.114 17.778 107.688 19.0957 107.688 20.8087V29.242H104.12Z" fill="#009245"/>
<path d="M129.258 29.6373C127.62 29.6373 126.162 29.2859 124.883 28.5831C123.626 27.8584 122.639 26.8591 121.92 25.5854C121.202 24.3116 120.843 22.8292 120.843 21.1381C120.843 19.4251 121.191 17.9207 121.887 16.625C122.605 15.3292 123.592 14.319 124.849 13.5943C126.128 12.8695 127.609 12.5071 129.292 12.5071C130.93 12.5071 132.355 12.8695 133.567 13.5943C134.778 14.297 135.721 15.2414 136.394 16.4273C137.067 17.6133 137.404 18.92 137.404 20.3475C137.404 20.5671 137.393 20.8087 137.37 21.0722C137.37 21.3138 137.359 21.5883 137.337 21.8958H124.344C124.456 23.477 124.984 24.6849 125.926 25.5195C126.891 26.3321 128.002 26.7384 129.258 26.7384C130.268 26.7384 131.11 26.5187 131.783 26.0795C132.478 25.6183 132.995 25.0034 133.331 24.2347H136.899C136.45 25.772 135.553 27.0568 134.206 28.089C132.882 29.1212 131.233 29.6373 129.258 29.6373ZM129.258 15.3732C128.069 15.3732 127.014 15.7245 126.094 16.4273C125.174 17.1081 124.613 18.1403 124.411 19.5239H133.836C133.769 18.2501 133.309 17.2399 132.456 16.4932C131.603 15.7465 130.537 15.3732 129.258 15.3732Z" fill="#009245"/>
<path d="M138.582 29.242V12.9025H141.779L142.082 15.9991C142.666 14.9229 143.473 14.0774 144.506 13.4625C145.56 12.8256 146.828 12.5071 148.309 12.5071V16.1638H147.333C146.346 16.1638 145.459 16.3285 144.674 16.6579C143.911 16.9654 143.294 17.5034 142.823 18.2721C142.374 19.0188 142.149 20.062 142.149 21.4017V29.242H138.582Z" fill="#009245"/>
<path d="M150.863 9.80585C150.19 9.80585 149.629 9.6082 149.18 9.21289C148.754 8.79561 148.541 8.27951 148.541 7.66458C148.541 7.04966 148.754 6.54454 149.18 6.14922C149.629 5.73195 150.19 5.52332 150.863 5.52332C151.537 5.52332 152.086 5.73195 152.513 6.14922C152.961 6.54454 153.186 7.04966 153.186 7.66458C153.186 8.27951 152.961 8.79561 152.513 9.21289C152.086 9.6082 151.537 9.80585 150.863 9.80585ZM149.079 29.242V12.9025H152.647V29.242H149.079Z" fill="#009245"/>
<path d="M162.743 29.6373C161.105 29.6373 159.635 29.2749 158.333 28.5502C157.054 27.8255 156.045 26.8262 155.304 25.5524C154.586 24.2567 154.227 22.7633 154.227 21.0722C154.227 19.3812 154.586 17.8988 155.304 16.625C156.045 15.3292 157.054 14.319 158.333 13.5943C159.635 12.8695 161.105 12.5071 162.743 12.5071C164.807 12.5071 166.535 13.0342 167.926 14.0884C169.34 15.1426 170.249 16.5701 170.653 18.3709H166.917C166.692 17.4705 166.199 16.7677 165.436 16.2626C164.673 15.7575 163.775 15.5049 162.743 15.5049C161.868 15.5049 161.06 15.7245 160.319 16.1638C159.579 16.581 158.984 17.207 158.535 18.0415C158.087 18.8541 157.862 19.8643 157.862 21.0722C157.862 22.2801 158.087 23.3013 158.535 24.1359C158.984 24.9485 159.579 25.5744 160.319 26.0136C161.06 26.4529 161.868 26.6725 162.743 26.6725C163.775 26.6725 164.673 26.4199 165.436 25.9148C166.199 25.4097 166.692 24.6959 166.917 23.7735H170.653C170.271 25.5305 169.374 26.947 167.96 28.0231C166.546 29.0992 164.807 29.6373 162.743 29.6373Z" fill="#009245"/>
</g>
<path d="M83.8678 44.4767L80.5483 35.2021H78.4438L75.1244 44.4767H76.878L77.5545 42.5488H81.4376L82.1141 44.4767H83.8678ZM81.0117 41.1811H77.9678L79.4961 36.8173L81.0117 41.1811Z" fill="#003865"/>
<path d="M92.6226 39.8394C92.6226 36.9346 91.132 35.2021 88.1883 35.2021H84.6433V44.4767H88.1883C91.132 44.4767 92.6226 42.7572 92.6226 39.8394ZM90.919 39.8394C90.919 41.9887 90.0422 43.0829 88.276 43.0829H86.3469V36.5959H88.276C90.0422 36.5959 90.919 37.6901 90.919 39.8394Z" fill="#003865"/>
<path d="M103.505 44.4767V35.2021H100.824L98.5695 41.8063L96.3147 35.2021H93.6466V44.4767H95.2625V36.8043L97.8555 44.4767H99.296L101.876 36.8043V44.4767H103.505Z" fill="#003865"/>
<path d="M106.592 44.4767V35.2021H104.889V44.4767H106.592Z" fill="#003865"/>
<path d="M115.6 44.4767V35.2021H113.971V41.9627L109.8 35.2021H107.971V44.4767H109.587V37.7161L113.771 44.4767H115.6Z" fill="#003865"/>
<path d="M127.209 38.159C127.209 36.2572 125.981 35.2021 124.002 35.2021H120.106V44.4767H121.81V41.116H124.002C125.981 41.116 127.209 40.0739 127.209 38.159ZM125.505 38.159C125.505 39.2793 124.891 39.7873 123.764 39.7873H121.81V36.5308H123.764C124.891 36.5308 125.505 37.0518 125.505 38.159Z" fill="#003865"/>
<path d="M135.294 44.4767L131.975 35.2021H129.87L126.551 44.4767H128.305L128.981 42.5488H132.864L133.541 44.4767H135.294ZM132.438 41.1811H129.394L130.923 36.8173L132.438 41.1811Z" fill="#003865"/>
<path d="M143.698 44.4767V35.2021H142.07V41.9627L137.899 35.2021H136.07V44.4767H137.686V37.7161L141.87 44.4767H143.698Z" fill="#003865"/>
<path d="M151.574 44.4767V43.0308H146.777V40.4256H151.174V39.0709H146.777V36.648H151.574V35.2021H145.073V44.4767H151.574Z" fill="#003865"/>
<path d="M158.596 44.4767V43.0308H154.324V35.2021H152.621V44.4767H158.596Z" fill="#003865"/>
</svg>
