<svg width="28" height="28" viewBox="0 0 28 28" fill="none" xmlns="http://www.w3.org/2000/svg">
<path d="M9.33331 6.70834C8.85498 6.70834 8.45831 6.31168 8.45831 5.83334V2.33334C8.45831 1.85501 8.85498 1.45834 9.33331 1.45834C9.81165 1.45834 10.2083 1.85501 10.2083 2.33334V5.83334C10.2083 6.31168 9.81165 6.70834 9.33331 6.70834Z" fill="#004378"/>
<path d="M18.6667 6.70834C18.1884 6.70834 17.7917 6.31168 17.7917 5.83334V2.33334C17.7917 1.85501 18.1884 1.45834 18.6667 1.45834C19.145 1.45834 19.5417 1.85501 19.5417 2.33334V5.83334C19.5417 6.31168 19.145 6.70834 18.6667 6.70834Z" fill="#004378"/>
<path d="M17.5 13.7083H8.16669C7.68835 13.7083 7.29169 13.3117 7.29169 12.8333C7.29169 12.355 7.68835 11.9583 8.16669 11.9583H17.5C17.9784 11.9583 18.375 12.355 18.375 12.8333C18.375 13.3117 17.9784 13.7083 17.5 13.7083Z" fill="#004378"/>
<path d="M14 18.375H8.16669C7.68835 18.375 7.29169 17.9783 7.29169 17.5C7.29169 17.0217 7.68835 16.625 8.16669 16.625H14C14.4784 16.625 14.875 17.0217 14.875 17.5C14.875 17.9783 14.4784 18.375 14 18.375Z" fill="#004378"/>
<path d="M17.5 26.5417H10.5C3.94333 26.5417 2.625 23.45 2.625 18.4567V11.2583C2.625 5.72834 4.49167 3.47668 9.28667 3.20834H18.6667C23.5083 3.47668 25.375 5.72834 25.375 11.2583V18.6667C25.375 19.145 24.9783 19.5417 24.5 19.5417C24.0217 19.5417 23.625 19.145 23.625 18.6667V11.2583C23.625 6.17168 21.9333 5.14501 18.62 4.95834H9.33333C6.06667 5.14501 4.375 6.17168 4.375 11.2583V18.4567C4.375 22.925 5.22667 24.7917 10.5 24.7917H17.5C17.9783 24.7917 18.375 25.1883 18.375 25.6667C18.375 26.145 17.9783 26.5417 17.5 26.5417Z" fill="#004378"/>
<path d="M17.5 26.5417C17.3833 26.5417 17.2783 26.5183 17.1617 26.4717C16.835 26.3317 16.625 26.0167 16.625 25.6667V22.1667C16.625 19.3433 18.1767 17.7917 21 17.7917H24.5C24.85 17.7917 25.1767 18.0017 25.305 18.3283C25.445 18.655 25.3633 19.0283 25.1183 19.285L18.1183 26.285C17.955 26.4483 17.7333 26.5417 17.5 26.5417ZM21 19.5417C19.1567 19.5417 18.375 20.3233 18.375 22.1667V23.555L22.3883 19.5417H21Z" fill="#004378"/>
</svg>
