<svg width="26" height="26" viewBox="0 0 26 26" fill="none" xmlns="http://www.w3.org/2000/svg">
<g clip-path="url(#clip0_372_167)">
<path d="M19.9824 11.8218H12.6032C12.3125 10.1129 10.8222 8.8075 9.03185 8.8075C7.03371 8.8075 5.40815 10.4331 5.40815 12.4311C5.40815 14.4292 7.03371 16.0547 9.03185 16.0547C10.8222 16.0547 12.3125 14.7493 12.6032 13.0405H15.6636V15.274C15.6636 15.6106 15.9365 15.8834 16.273 15.8834C16.6095 15.8834 16.8824 15.6106 16.8824 15.274V13.0405H19.373V16.5832C19.373 16.9198 19.6459 17.1926 19.9824 17.1926C20.3189 17.1926 20.5918 16.9198 20.5918 16.5832V12.4311C20.5918 12.0946 20.3189 11.8218 19.9824 11.8218ZM9.03185 14.836C7.70575 14.836 6.6269 13.7572 6.6269 12.4311C6.6269 11.1051 7.70575 10.0262 9.03185 10.0262C10.3578 10.0262 11.4366 11.1049 11.4368 12.4308V12.4311C11.4368 12.4311 11.4368 12.4314 11.4368 12.4315C11.4366 13.7574 10.3578 14.836 9.03185 14.836ZM13 0C5.83177 0 0 5.83177 0 13C0 20.1682 5.83177 26 13 26C20.1682 26 25.9999 20.1682 25.9999 13C25.9999 5.83177 20.1682 0 13 0ZM13 24.7812C6.50381 24.7812 1.21875 19.4962 1.21875 13C1.21875 6.50381 6.50381 1.21875 13 1.21875C19.4962 1.21875 24.7812 6.50381 24.7812 13C24.7812 19.4962 19.4962 24.7812 13 24.7812Z" fill="black"/>
</g>
<defs>
<clipPath id="clip0_372_167">
<rect width="26" height="26" fill="white"/>
</clipPath>
</defs>
</svg>
