<svg width="7" height="14" viewBox="0 0 7 14" fill="none" xmlns="http://www.w3.org/2000/svg">
<path d="M6.11667 5.05664L1.90917 0.84914C1.73742 0.67841 1.50509 0.582581 1.26292 0.582581C1.02075 0.582581 0.788417 0.67841 0.616668 0.84914C0.530751 0.934356 0.462556 1.03574 0.416018 1.14745C0.36948 1.25915 0.34552 1.37896 0.34552 1.49997C0.34552 1.62098 0.36948 1.7408 0.416018 1.8525C0.462556 1.96421 0.530751 2.06559 0.616668 2.15081L4.83334 6.34914C4.91925 6.43436 4.98745 6.53574 5.03399 6.64745C5.08052 6.75915 5.10448 6.87896 5.10448 6.99997C5.10448 7.12099 5.08052 7.2408 5.03399 7.3525C4.98745 7.46421 4.91925 7.56559 4.83334 7.65081L0.616668 11.8491C0.444057 12.0205 0.346602 12.2535 0.345742 12.4967C0.344883 12.74 0.44069 12.9736 0.612086 13.1462C0.783482 13.3188 1.01643 13.4163 1.25968 13.4172C1.50293 13.418 1.73656 13.3222 1.90917 13.1508L6.11667 8.94331C6.63165 8.42768 6.92092 7.72873 6.92092 6.99997C6.92092 6.27122 6.63165 5.57227 6.11667 5.05664Z" fill="white"/>
</svg>
