<svg width="22" height="22" viewBox="0 0 22 22" fill="none" xmlns="http://www.w3.org/2000/svg">
<path d="M11 22C17.0751 22 22 17.0751 22 11C22 4.92487 17.0751 0 11 0C4.92487 0 0 4.92487 0 11C0 17.0751 4.92487 22 11 22Z" fill="#4FBA6F"/>
<path fill-rule="evenodd" clip-rule="evenodd" d="M7.9706 16C7.75497 16 7.54818 15.9209 7.39573 15.7803L4.22825 12.5C3.9201 12.2057 3.92451 11.738 4.23815 11.4487C4.5518 11.1594 5.05894 11.1553 5.37799 11.4395L7.99743 14.2143L16.3676 7.19521C16.5826 7.01488 16.8855 6.95403 17.1623 7.03559C17.4391 7.11714 17.6477 7.3287 17.7095 7.59057C17.7713 7.85245 17.677 8.12486 17.462 8.30518L8.51782 15.805C8.36808 15.9305 8.17296 16.0001 7.9706 16Z" fill="white"/>
</svg>
