<svg width="59" height="59" viewBox="0 0 59 59" fill="none" xmlns="http://www.w3.org/2000/svg">
<g clip-path="url(#clip0_4445_24982)">
<path d="M29.4363 58.8726C45.6935 58.8726 58.8726 45.6935 58.8726 29.4363C58.8726 13.1791 45.6935 0 29.4363 0C13.1791 0 0 13.1791 0 29.4363C0 45.6935 13.1791 58.8726 29.4363 58.8726Z" fill="#FFC9C8"/>
<mask id="mask0_4445_24982" style="mask-type:alpha" maskUnits="userSpaceOnUse" x="0" y="0" width="59" height="59">
<path d="M29.4363 58.8726C45.6935 58.8726 58.8726 45.6935 58.8726 29.4363C58.8726 13.1791 45.6935 0 29.4363 0C13.1791 0 0 13.1791 0 29.4363C0 45.6935 13.1791 58.8726 29.4363 58.8726Z" fill="#FFC9C8"/>
</mask>
<g mask="url(#mask0_4445_24982)">
<path d="M54.2034 61.1771H4.66931C4.66931 61.1771 5.16753 54.9998 8.1569 53.8012C9.36637 53.3174 12.1355 51.9418 15.0094 50.4688C16.0744 49.9237 17.1575 49.3641 18.1756 48.8333C18.2839 48.7792 18.3923 48.7214 18.497 48.6673C19.3346 48.2304 20.1216 47.8188 20.822 47.4506C22.36 46.6419 23.4612 46.057 23.6706 45.945C23.6959 45.9306 23.7067 45.927 23.7067 45.927L24.0858 46.01C24.5587 46.1184 25.0353 46.2086 25.5119 46.2844C25.9848 46.3602 26.4578 46.4216 26.9307 46.4686C29.5446 46.7249 32.191 46.5444 34.758 45.9306C34.7616 45.9306 34.7652 45.9306 34.7724 45.927C34.7724 45.927 35.935 46.5263 37.6463 47.3964C38.3575 47.7611 39.1626 48.169 40.0183 48.6023C40.1266 48.6564 40.2349 48.7106 40.3432 48.7683C40.762 48.9777 41.1916 49.1944 41.6249 49.4146C42.087 49.6457 42.5564 49.884 43.0257 50.1186C46.2209 51.718 49.416 53.2813 50.7194 53.8012C53.7051 54.9962 54.2034 61.1771 54.2034 61.1771Z" fill="#FF4F4E"/>
<path d="M40.3396 48.7683C40.1699 49.2629 39.9749 49.7684 39.7511 50.2738C38.8629 52.2704 37.7004 53.8589 36.2923 55.0034C34.5269 56.4367 32.3751 57.1624 29.8948 57.1624C24.7139 57.1624 21.5188 54.1261 19.7497 51.5808C19.089 50.6277 18.5727 49.6709 18.1792 48.8297C18.2875 48.7755 18.3958 48.7178 18.5005 48.6636C18.8868 49.4976 19.3995 50.4435 20.053 51.3858C22.5549 54.9781 25.8692 56.8014 29.8984 56.8014C34.2525 56.8014 37.4549 54.5557 39.4261 50.1258C39.6536 49.6131 39.8485 49.1005 40.0182 48.5986C40.1229 48.66 40.2312 48.7142 40.3396 48.7683Z" fill="#C42C31"/>
<path d="M37.6427 47.3964C37.0181 50.0789 34.6569 54.1658 29.4363 54.1658C23.7067 54.1658 21.5549 49.5301 20.822 47.4506C22.36 46.6419 23.4612 46.057 23.6706 45.945C23.6959 45.9306 23.7067 45.927 23.7067 45.927L24.0858 46.01C24.5587 46.1184 25.0353 46.2086 25.5119 46.2844C25.9848 46.3602 26.4578 46.4216 26.9307 46.4686C29.5446 46.7249 32.191 46.5444 34.758 45.9306C34.7616 45.9306 34.7652 45.9306 34.7724 45.927C34.7688 45.927 35.9313 46.5263 37.6427 47.3964Z" fill="#FFF7F1"/>
<path d="M35.0215 47.1907C35.0215 47.1907 34.0503 50.245 29.588 50.245C24.3818 50.245 23.1543 47.4687 23.1543 47.4687C23.6056 46.27 23.9161 45.1581 24.1255 44.1652C24.5118 42.3456 24.5659 40.9195 24.5407 40.0422L33.6857 39.6812C33.7687 40.4574 33.9095 41.3672 34.0648 42.2842C34.4836 44.7212 35.0215 47.1907 35.0215 47.1907Z" fill="#FFB8A1"/>
<path d="M34.0683 42.2843C32.6495 43.27 29.5518 44.7358 24.129 44.1653C24.5153 42.3457 24.5695 40.9196 24.5442 40.0423L33.6892 39.6813C33.7759 40.4539 33.9131 41.3673 34.0683 42.2843Z" fill="#3F2037"/>
<path d="M21.053 28.1135C21.053 28.1135 18.2225 24.2612 16.0202 26.5394C13.8179 28.8211 18.0636 36.7603 21.9159 35.0309L21.053 28.1135Z" fill="#FFB8A1"/>
<path d="M19.7029 32.6662C19.6054 32.6662 19.5223 32.594 19.5079 32.4965C19.136 29.8176 17.0095 28.1749 16.9879 28.1605C16.9012 28.0955 16.8868 27.9727 16.9518 27.8861C17.0167 27.7994 17.1395 27.785 17.2262 27.85C17.32 27.9222 19.5043 29.6082 19.8978 32.4423C19.9123 32.5506 19.8364 32.6481 19.7317 32.6626C19.7209 32.6662 19.7101 32.6662 19.7029 32.6662Z" fill="#FF8A8A"/>
<path d="M19.1108 30.7453C19.0494 30.7453 18.988 30.7164 18.9483 30.6586C18.6631 30.2398 17.8147 30.1965 17.5114 30.2146C17.4031 30.2218 17.3092 30.1388 17.3056 30.0304C17.2984 29.9221 17.3814 29.8283 17.4897 29.8247C17.5439 29.821 18.8075 29.7525 19.2732 30.4384C19.3346 30.5287 19.3094 30.6478 19.2191 30.7092C19.1866 30.7345 19.1469 30.7453 19.1108 30.7453Z" fill="#FF8A8A"/>
<path d="M38.2962 28.1135C38.2962 28.1135 41.1267 24.2612 43.3291 26.5394C45.5314 28.8211 41.2856 36.7603 37.4333 35.0309L38.2962 28.1135Z" fill="#FFB8A1"/>
<path d="M39.6464 32.6661C39.6392 32.6661 39.6283 32.6661 39.6175 32.6625C39.5092 32.648 39.437 32.5505 39.4514 32.4422C39.8449 29.6081 42.0292 27.9184 42.1231 27.8498C42.2097 27.7849 42.3325 27.8029 42.3975 27.886C42.4625 27.9726 42.4444 28.0954 42.3614 28.1603C42.3397 28.1748 40.2096 29.8247 39.8413 32.4964C39.8269 32.5975 39.7439 32.6661 39.6464 32.6661Z" fill="#FF8A8A"/>
<path d="M40.2386 30.7454C40.2025 30.7454 40.1628 30.7346 40.1303 30.7129C40.04 30.6515 40.0183 30.5324 40.0797 30.4421C40.5454 29.7526 41.8091 29.8248 41.8632 29.8284C41.9715 29.8356 42.051 29.9295 42.0474 30.0342C42.0401 30.1425 41.9463 30.2255 41.8416 30.2183C41.5383 30.2002 40.6899 30.2436 40.4046 30.6624C40.3649 30.7129 40.3036 30.7454 40.2386 30.7454Z" fill="#FF8A8A"/>
<path d="M31.4834 16.1669C23.4143 16.1633 18.4067 20.344 19.3057 29.9404C19.8436 35.6664 22.7897 42.7535 29.5844 42.916C36.6679 43.0821 39.5092 35.3703 40.5201 29.518C41.4444 24.1638 38.7222 18.2284 33.5594 16.5351C33.2019 16.416 31.9347 16.1669 31.4834 16.1669Z" fill="#FFB8A1"/>
<path d="M19.2118 28.1893C19.2118 28.1893 18.2731 19.0912 18.2442 17.0767C18.1756 12.1738 23.1218 9.42271 30.3823 9.44076C36.2382 9.45159 36.9567 12.0149 37.4297 14.0909C37.4297 14.0909 41.7585 14.2028 42.4192 17.2211C43.0799 20.2393 40.3324 29.3519 40.3324 29.3519C40.3324 29.3519 39.4117 27.2543 38.751 24.236C38.0904 21.2177 37.2311 19.3692 35.3465 19.3331C33.4619 19.297 31.1007 19.3909 28.5554 20.9C26.0101 22.4091 23.4612 22.5969 21.6705 21.2755C21.6705 21.2755 21.1939 25.8282 19.2118 28.1893Z" fill="#3F2037"/>
<g opacity="0.5">
<path d="M26.2375 31.9837C26.2375 32.6697 24.9739 33.2221 23.4142 33.2221C21.8546 33.2221 20.5909 32.6661 20.5909 31.9837C20.5909 31.2977 21.8546 30.7454 23.4142 30.7454C24.9739 30.7454 26.2375 31.2977 26.2375 31.9837Z" fill="#FF8A8A"/>
</g>
<g opacity="0.5">
<path d="M39.5165 31.9837C39.5165 32.6697 38.2528 33.2221 36.6932 33.2221C35.1335 33.2221 33.8699 32.6661 33.8699 31.9837C33.8699 31.2977 35.1335 30.7454 36.6932 30.7454C38.2528 30.7454 39.5165 31.2977 39.5165 31.9837Z" fill="#FF8A8A"/>
</g>
<path d="M40.5742 28.1894C40.5742 28.1894 40.5129 32.6193 39.1951 38.1901C37.0794 47.1185 29.8226 45.9307 29.8226 45.9307C29.8226 45.9307 22.7066 47.1221 20.5909 38.1901C19.2732 32.6193 19.2118 28.1894 19.2118 28.1894L20.3707 26.2543C20.3707 26.2543 21.183 33.9479 24.1291 35.2802C24.1291 35.2802 25.4396 33.2908 29.8262 35.1502C34.2128 33.2908 35.6642 35.2802 35.6642 35.2802C38.6102 33.9479 39.4225 26.2543 39.4225 26.2543L40.5742 28.1894Z" fill="#3F2037"/>
<path d="M30.1512 34.392C29.8154 34.392 29.4471 34.3053 29.0392 34.1284C28.9236 34.0779 28.8586 33.9587 28.8731 33.836L29.4399 29.4891C29.4616 29.3375 29.5988 29.2292 29.754 29.2472C29.9056 29.2689 30.014 29.4061 29.9959 29.5613L29.458 33.6952C30.014 33.8973 30.4436 33.8793 30.7974 33.641C30.9238 33.5544 31.0971 33.5869 31.1837 33.7168C31.2704 33.8432 31.2343 34.0165 31.1079 34.1031C30.8191 34.2945 30.5014 34.392 30.1512 34.392Z" fill="#FF8A8A"/>
<path d="M29.6313 37.7712C28.0319 37.7712 26.8189 37.1105 26.8008 37.0997C26.6672 37.0239 26.6167 36.8542 26.6925 36.7206C26.7683 36.587 26.938 36.5365 27.0716 36.6123C27.2052 36.6881 30.2956 38.3525 32.9709 35.8794C33.0828 35.7747 33.2597 35.7819 33.3644 35.8938C33.4691 36.0057 33.4619 36.1827 33.35 36.2874C32.1116 37.4354 30.7722 37.7712 29.6313 37.7712Z" fill="#734669"/>
<path d="M30.0863 39.367C29.4545 39.367 28.9491 39.2117 28.913 39.2009C28.7649 39.154 28.6855 38.9987 28.7288 38.8507C28.7758 38.7027 28.931 38.6232 29.079 38.6666C29.0899 38.6702 30.3282 39.0457 31.1983 38.551C31.3319 38.4752 31.5016 38.5222 31.5774 38.6557C31.6532 38.7893 31.6063 38.959 31.4727 39.0348C31.0286 39.2912 30.5268 39.367 30.0863 39.367Z" fill="#734669"/>
<path d="M24.1942 26.9655C24.7935 26.6441 25.6708 26.2434 26.5265 26.1206C26.985 26.052 27.2738 25.5935 27.115 25.1567L27.0825 25.07C26.9706 24.7559 26.6565 24.5574 26.3243 24.5935C25.5625 24.6729 24.2159 24.94 23.3349 25.8174C23.1436 26.0087 23.0786 26.2903 23.158 26.5467C23.2952 26.9763 23.7934 27.1821 24.1942 26.9655Z" fill="#3F2037"/>
<path d="M35.74 26.9655C35.1407 26.6441 34.2634 26.2434 33.4077 26.1206C32.9492 26.052 32.6604 25.5935 32.8192 25.1567L32.8517 25.07C32.9637 24.7559 33.2777 24.5574 33.6099 24.5935C34.3717 24.6729 35.7183 24.94 36.5993 25.8174C36.7906 26.0087 36.8556 26.2903 36.7762 26.5467C36.639 26.9763 36.1408 27.1821 35.74 26.9655Z" fill="#3F2037"/>
<path d="M26.4326 29.099C26.447 29.8536 26.1654 30.4746 25.8116 30.4782C25.4542 30.4854 25.1545 29.8752 25.1401 29.1207C25.1256 28.3661 25.4072 27.7451 25.761 27.7415C26.1221 27.7343 26.4217 28.3408 26.4326 29.099Z" fill="#3F2037"/>
<path d="M33.1911 29.099C33.1766 29.8536 33.4583 30.4746 33.8121 30.4782C34.1695 30.4854 34.4691 29.8752 34.4836 29.1207C34.498 28.3661 34.2164 27.7451 33.8626 27.7415C33.5052 27.7343 33.2055 28.3408 33.1911 29.099Z" fill="#3F2037"/>
</g>
</g>
<defs>
<clipPath id="clip0_4445_24982">
<rect width="58.8726" height="58.8726" fill="white"/>
</clipPath>
</defs>
</svg>
